# xmcd
#
# Track frame offsets:
#	182
#	25512
#	44457
#	67890
#	89122
#	114130
#	138777
#	163122
#	184362
#	198182
#	215570
#
# Disc length: 3069 seconds
#
# Revision: 1
# Processed by: cddbd v1.4PL0 Copyright (c) Steve Scherf et al.
# Submitted via: EasyCDDAExtractor 5.0.6
#
DISCID=940bfb0b
DTITLE=Luther Johnson Jr. - Luther's Blues
DYEAR=1988
DGENRE=Blues
TTITLE0=Back at the Chicken Shack
TTITLE1=Come Baby
TTITLE2=Too Many Drivers
TTITLE3=Sweet Home Chicago
TTITLE4=Luther's Blues
TTITLE5=I Can't Stop
TTITLE6=Nobady wants to Loose
TTITLE7=Mother in Law
TTITLE8=Better Watch Yourself
TTITLE9=Little Queenie
TTITLE10=Boogin' in the Dark
EXTD=
EXTT0=
EXTT1=
EXTT2=
EXTT3=
EXTT4=
EXTT5=
EXTT6=
EXTT7=
EXTT8=
EXTT9=
EXTT10=
PLAYORDER=
